HIERARCHY
ROOT Hips
{
	OFFSET 0.000000 0.000000 0.000000
	CHANNELS 6 Xposition Yposition Zposition Zrotation Yrotation Xrotation 
	JOINT LHipJoint
	{
		OFFSET 0.000000 0.000000 0.000000
		CHANNELS 3 Zrotation Yrotation Xrotation
		JOINT LeftUpLeg
		{
			OFFSET 1.363060 -1.794630 0.839290
			CHANNELS 3 Zrotation Yrotation Xrotation
			JOINT LeftLeg
			{
				OFFSET 2.448110 -6.726130 0.000000
				CHANNELS 3 Zrotation Yrotation Xrotation
				JOINT LeftFoot
				{
					OFFSET 2.562200 -7.039590 0.000000
					CHANNELS 3 Zrotation Yrotation Xrotation
					JOINT LeftToeBase
					{
						OFFSET 0.157640 -0.433110 2.322550
						CHANNELS 3 Zrotation Yrotation Xrotation
						End Site
						{
							OFFSET 0.000000 0.000000 0.000000
						}
					}
				}
			}
		}
	}
	JOINT RHipJoint
	{
		OFFSET 0.000000 0.000000 0.000000
		CHANNELS 3 Zrotation Yrotation Xrotation
		JOINT RightUpLeg
		{
			OFFSET -1.305520 -1.794630 0.839290
			CHANNELS 3 Zrotation Yrotation Xrotation
			JOINT RightLeg
			{
				OFFSET -2.542530 -6.985550 0.000000
				CHANNELS 3 Zrotation Yrotation Xrotation
				JOINT RightFoot
				{
					OFFSET -2.568260 -7.056230 0.000000
					CHANNELS 3 Zrotation Yrotation Xrotation
					JOINT RightToeBase
					{
						OFFSET -0.164730 -0.452590 2.363150
						CHANNELS 3 Zrotation Yrotation Xrotation
						End Site
						{
							OFFSET 0.000000 0.000000 0.000000
						}
					}
				}
			}
		}
	}
	JOINT LowerBack
	{
		OFFSET 0.000000 0.000000 0.000000
		CHANNELS 3 Zrotation Yrotation Xrotation
		JOINT Spine
		{
			OFFSET 0.028270 2.035590 -0.193380
			CHANNELS 3 Zrotation Yrotation Xrotation
			JOINT Spine1
			{
				OFFSET 0.056720 2.048850 -0.042750
				CHANNELS 3 Zrotation Yrotation Xrotation
				JOINT Neck
				{
					OFFSET 0.000000 0.000000 0.000000
					CHANNELS 3 Zrotation Yrotation Xrotation
					JOINT Neck1
					{
						OFFSET -0.054170 1.746240 0.172020
						CHANNELS 3 Zrotation Yrotation Xrotation
						JOINT Head
						{
							OFFSET 0.104070 1.761360 -0.123970
							CHANNELS 3 Zrotation Yrotation Xrotation
							End Site
							{
								OFFSET 0.000000 0.000000 0.000000
							}
						}
					}
				}
				JOINT LeftShoulder
				{
					OFFSET 0.000000 0.000000 0.000000
					CHANNELS 3 Zrotation Yrotation Xrotation
					JOINT LeftArm
					{
						OFFSET 3.362410 1.200890 -0.311210
						CHANNELS 3 Zrotation Yrotation Xrotation
						JOINT LeftForeArm
						{
							OFFSET 4.983000 -0.000000 -0.000000
							CHANNELS 3 Zrotation Yrotation Xrotation
							JOINT LeftHand
							{
								OFFSET 3.483560 -0.000000 -0.000000
								CHANNELS 3 Zrotation Yrotation Xrotation
								JOINT LeftFingerBase
								{
									OFFSET 0.000000 0.000000 0.000000
									CHANNELS 3 Zrotation Yrotation Xrotation
									JOINT LeftHandIndex1
									{
										OFFSET 0.715260 -0.000000 -0.000000
										CHANNELS 3 Zrotation Yrotation Xrotation
										End Site
										{
											OFFSET 0.000000 0.000000 0.000000
										}
									}
								}
								JOINT LThumb
								{
									OFFSET 0.000000 0.000000 0.000000
									CHANNELS 3 Zrotation Yrotation Xrotation
									End Site
									{
										OFFSET 0.000000 0.000000 0.000000
									}
								}
							}
						}
					}
				}
				JOINT RightShoulder
				{
					OFFSET 0.000000 0.000000 0.000000
					CHANNELS 3 Zrotation Yrotation Xrotation
					JOINT RightArm
					{
						OFFSET -3.136600 1.374050 -0.404650
						CHANNELS 3 Zrotation Yrotation Xrotation
						JOINT RightForeArm
						{
							OFFSET -5.241900 -0.000000 -0.000000
							CHANNELS 3 Zrotation Yrotation Xrotation
							JOINT RightHand
							{
								OFFSET -3.444170 -0.000000 -0.000000
								CHANNELS 3 Zrotation Yrotation Xrotation
								JOINT RightFingerBase
								{
									OFFSET 0.000000 0.000000 0.000000
									CHANNELS 3 Zrotation Yrotation Xrotation
									JOINT RightHandIndex1
									{
										OFFSET -0.622530 -0.000000 -0.000000
										CHANNELS 3 Zrotation Yrotation Xrotation
										End Site
										{
											OFFSET 0.000000 0.000000 0.000000
										}
									}
								}
								JOINT RThumb
								{
									OFFSET 0.000000 0.000000 0.000000
									CHANNELS 3 Zrotation Yrotation Xrotation
									End Site
									{
										OFFSET 0.000000 0.000000 0.000000
									}
								}
							}
						}
					}
				}
			}
		}
	}
}
MOTION
Frames: 6
Frame Time: 0.008333
10.407509 17.949967 3.693785 178.669496 0.063128 -160.706409 10.774612 0.966266 -2.828525 -16.194127 -21.460259 -64.058928 19.635257 25.536254 90.724329 1.264298 -5.338550 -24.018945 1.468900 -7.659000 -21.683000 -14.340771 -2.898999 -2.097931 35.131612 16.107169 -13.037083 0.976443 -4.249264 10.915960 -0.928925 1.373018 -18.440556 -2.380000 9.616300 -27.743000 -2.109614 -0.347252 -13.833333 1.702274 -0.522757 -3.537485 -0.529046 -0.892732 14.448478 -9.348677 -1.959531 -3.191619 9.610676 -6.018019 27.773462 1.155800 -2.115700 6.330500 16.060916 -0.995563 1.051106 -104.704451 -2.167842 15.665455 11.452653 -12.819744 -1.628525 -1.531414 1.122605 7.240252 19.035110 -11.445778 -4.602800 -7.125000 0.000000 0.000000 -4.541000 16.879400 3.036500 -11.361825 0.650418 0.049151 96.575878 0.081696 12.189616 -21.901420 34.006906 -8.467971 0.278523 3.797708 -3.463109 -10.594196 -52.771964 9.293600 7.125000 0.000000 0.000000 80.811300 -76.006900 -66.305800 
10.408604 17.951719 3.620008 178.610518 0.137213 -160.646324 10.812260 0.976195 -2.845196 -15.713660 -21.644787 -65.239372 19.419935 25.615654 90.137840 1.330173 -5.319343 -24.465244 1.405100 -7.498100 -21.199600 -14.333561 -2.913378 -2.108159 35.129375 16.055672 -12.831775 0.970081 -4.240225 10.958846 -0.955836 1.475402 -18.650019 -2.353000 9.565500 -27.581000 -2.164425 -0.291439 -13.894726 1.664133 -0.428283 -3.520847 -0.620795 -0.838084 14.505361 -9.180096 -1.749975 -2.860205 9.541141 -5.685696 27.222391 1.105600 -1.947400 6.056100 16.038438 -1.006889 1.085560 -104.653813 -1.975307 14.755481 11.231736 -12.484677 -1.543714 -1.539861 1.162006 8.077817 19.195959 -11.353819 -4.619100 -7.125000 0.000000 0.000000 -4.407700 16.945800 2.940400 -11.364538 0.604896 0.043037 96.532983 0.305570 12.569030 -22.104839 34.201537 -8.590965 0.273526 3.754456 -3.768175 -10.627722 -52.051621 9.250000 7.125000 0.000000 0.000000 77.712900 -75.960000 -63.224000 
10.411997 17.956207 3.560570 178.594984 0.306398 -160.592720 10.849784 0.994227 -2.866886 -15.191096 -21.675627 -66.424052 19.171127 25.690121 89.460140 1.416489 -5.004826 -24.798305 1.511800 -7.765100 -22.003000 -14.348435 -2.898638 -2.093777 35.138247 16.270964 -12.664038 0.974387 -4.239674 10.983425 -0.975033 1.373987 -18.815819 -2.391900 9.638700 -27.814600 -2.220279 -0.271927 -13.780602 1.647402 -0.379270 -3.529808 -0.605726 -0.823613 14.431782 -9.692773 -1.968031 -3.711760 9.781257 -6.041027 28.399834 1.304600 -2.128900 6.685000 15.989942 -0.902702 1.080607 -104.645666 -1.679811 13.962612 11.031331 -12.180497 -1.472395 -1.556642 1.245398 8.874672 19.496016 -11.631945 -4.826600 -7.125000 0.000000 0.000000 -4.181400 16.562500 2.823600 -11.387847 0.648219 0.010779 96.369404 0.646127 12.977688 -22.180994 34.264817 -8.634404 0.278457 3.690002 -3.985194 -10.608902 -50.801232 9.101700 7.125000 0.000000 0.000000 72.492600 -75.751800 -57.999200 
10.409589 17.955769 3.491281 178.572157 0.420708 -160.524304 10.881972 1.003307 -2.884582 -14.771937 -21.724756 -67.353568 18.790541 25.742001 88.444459 1.470495 -4.773926 -25.015140 1.489200 -7.709500 -21.835000 -14.344721 -2.915823 -2.102136 35.168864 16.252797 -12.385066 0.981209 -4.160496 10.844889 -0.995622 1.408977 -18.959969 -2.502800 9.842900 -28.469600 -2.218211 -0.168077 -13.837920 1.610447 -0.240624 -3.511098 -0.664750 -0.741629 14.477297 -9.704250 -1.789434 -3.350418 9.916859 -5.842010 27.915485 1.353100 -2.031900 6.430200 15.979764 -0.923410 1.109802 -104.590839 -1.410320 13.551193 10.905979 -12.007203 -1.430934 -1.577999 1.319143 9.293306 19.779663 -12.038464 -5.082400 -7.125000 0.000000 0.000000 -3.975500 16.043700 2.728600 -11.398562 0.582915 0.004761 96.299387 0.915947 13.278357 -22.330032 34.407233 -8.730988 0.284528 3.692070 -4.294127 -11.015063 -50.872155 9.464400 7.125000 0.000000 0.000000 72.618500 -75.926700 -58.312200 
10.403349 17.952266 3.417175 178.594367 0.472771 -160.467512 10.902375 1.016132 -2.889916 -14.372473 -21.816555 -68.110307 18.331487 25.776630 87.227004 1.518718 -4.571907 -25.233462 1.439800 -7.586100 -21.463900 -14.330407 -2.946426 -2.131899 35.258818 16.017465 -12.137761 0.973780 -4.109687 10.799617 -1.023794 1.681555 -19.146614 -2.530400 9.893000 -28.630900 -2.123575 -0.092102 -13.918756 1.586037 -0.155118 -3.475268 -0.773421 -0.687812 14.631793 -9.710776 -1.812990 -3.315243 9.926493 -5.853597 27.772501 1.356300 -2.038000 6.365800 15.961204 -0.910762 1.128343 -104.563698 -1.253410 13.156015 10.787349 -11.830218 -1.388641 -1.603565 1.367488 9.637508 20.057282 -12.234506 -5.251700 -7.125000 0.000000 0.000000 -3.766700 15.771900 2.606700 -11.409403 0.549561 -0.005160 96.248874 1.256218 13.634986 -22.448514 34.528344 -8.812302 0.298166 3.703278 -4.607537 -11.621814 -51.065451 10.016400 7.125000 0.000000 0.000000 73.220500 -76.204200 -59.189000 
10.402145 17.950077 3.348105 178.522558 0.534539 -160.493410 10.919037 1.035429 -2.889929 -14.095373 -21.913115 -68.768111 17.869607 25.797770 86.004953 1.572833 -4.245597 -25.394374 1.515700 -7.774700 -22.031700 -14.315003 -2.954925 -2.154688 35.236248 15.935047 -11.920984 0.958678 -4.144730 10.974389 -1.061769 1.785565 -19.427660 -2.493800 9.826700 -28.417400 -2.190634 -0.080048 -13.783295 1.555778 -0.106623 -3.446264 -0.832780 -0.667080 14.651099 -9.604918 -1.912797 -3.427231 9.682558 -5.891452 27.898373 1.256100 -2.058200 6.430300 15.949105 -0.863406 1.141204 -104.536135 -1.061377 12.648139 10.661808 -11.644158 -1.346720 -1.623399 1.446628 10.116376 20.375874 -12.625453 -5.522500 -7.125000 0.000000 0.000000 -3.540000 15.258900 2.488300 -11.415284 0.565292 -0.017095 96.178380 1.668361 14.069115 -22.534039 34.610911 -8.863262 0.229247 3.794927 -4.727235 -11.003167 -53.068108 9.695400 7.125000 0.000000 0.000000 81.920900 -76.178100 -67.593600 
